<?xml version="1.0" encoding="UTF-8" standalone="no"?>
<!-- Created with Inkscape (http://www.inkscape.org/) -->

<svg
   xmlns:dc="http://purl.org/dc/elements/1.1/"
   xmlns:cc="http://creativecommons.org/ns#"
   xmlns:rdf="http://www.w3.org/1999/02/22-rdf-syntax-ns#"
   xmlns:svg="http://www.w3.org/2000/svg"
   xmlns="http://www.w3.org/2000/svg"
   xmlns:sodipodi="http://sodipodi.sourceforge.net/DTD/sodipodi-0.dtd"
   xmlns:inkscape="http://www.inkscape.org/namespaces/inkscape"
   id="svg2"
   version="1.1"
   inkscape:version="0.91 r13725"
   width="256"
   height="256"
   viewBox="0 0 256 256"
   sodipodi:docname="biomass1.svg">
  <metadata
     id="metadata8">
    <rdf:RDF>
      <cc:Work
         rdf:about="">
        <dc:format>image/svg+xml</dc:format>
        <dc:type
           rdf:resource="http://purl.org/dc/dcmitype/StillImage" />
        <dc:title></dc:title>
      </cc:Work>
    </rdf:RDF>
  </metadata>
  <defs
     id="defs6" />
  <sodipodi:namedview
     pagecolor="#ffffff"
     bordercolor="#666666"
     borderopacity="1"
     objecttolerance="10"
     gridtolerance="10"
     guidetolerance="10"
     inkscape:pageopacity="0"
     inkscape:pageshadow="2"
     inkscape:window-width="1024"
     inkscape:window-height="684"
     id="namedview4"
     showgrid="false"
     inkscape:zoom="0.921875"
     inkscape:cx="109.01695"
     inkscape:cy="128"
     inkscape:window-x="0"
     inkscape:window-y="0"
     inkscape:window-maximized="0"
     inkscape:current-layer="svg2" />
  <path
     style="fill:#ffffff"
     d="m 26.500001,255.98631 c -3.3,-0.47 -8.9232,-2.33227 -12.496,-4.13838 -5.3980903,-2.72882 -7.0391003,-4.1927 -9.7093903,-8.66132 -9.4628,-15.83559 -6.30209,-24.99178 45.9467303,-133.10186 31.0476,-64.241784 28.75866,-58.268594 28.75866,-75.04844 l 0,-13.951564 -5.53212,0 c -3.04266,0 -7.01514,-0.619647 -8.82773,-1.376994 -6.65638,-2.781215 -7.46959,-12.9270109 -1.33589,-16.6669649 3.07616,-1.875656 5.49689,-1.948565 64.695739,-1.948565 59.19885,0 61.61958,0.07291 64.69574,1.948565 6.1337,3.739954 5.32049,13.8857499 -1.33589,16.6669649 -1.81259,0.757347 -5.78507,1.376994 -8.82773,1.376994 l -5.53212,0 0,13.951564 c 0,16.779846 -2.28894,10.806656 28.75865,75.04844 52.24883,108.11008 55.40954,117.26627 45.94674,133.10186 -2.67625,4.4786 -4.29925,5.92308 -9.70939,8.64144 -4.00722,2.01344 -9.17788,3.6381 -13.496,4.24051 -8.66057,1.20824 -193.467579,1.13299 -201.999999,-0.0823 z M 231.67913,234.84572 c 5.67497,-3.1043 5.55937,-7.10962 -0.65485,-22.68795 -5.73687,-14.38168 -18.43484,-41.75184 -41.788,-90.07302 C 177.67355,98.159746 166.02769,73.859746 163.35657,68.084746 l -4.85657,-10.5 -0.31184,-18.25 -0.31184,-18.25 -29.87632,0 -29.876319,0 -0.31184,18.25 -0.31184,18.25 -4.85657,10.5 c -2.67112,5.775 -14.31698,30.075 -25.87971,54.000004 -31.68819,65.5676 -44.62895,94.43423 -46.28019,103.23609 -1.19691,6.38009 0.79527,9.07572 8.01647,10.84713 1.65,0.40475 47.325,0.66411 101.499999,0.57635 91.50836,-0.14824 98.72566,-0.28301 101.67913,-1.8986 z M 119.30638,205.4704 c 0.33724,-6.53711 1.34377,-14.58565 2.23672,-17.88565 6.35043,-23.46858 23.5944,-39.79384 49.08584,-46.47068 11.78697,-3.08729 12.01976,-3.02552 14.02042,3.72068 2.2738,7.66721 2.2407,23.56807 -0.0669,32.16342 -3.89126,14.49383 -13.47506,27.93019 -23.60968,33.10049 -9.7027,4.94995 -15.02073,6.18985 -28.87612,6.73247 l -13.40339,0.52492 0.61316,-11.88565 z m -16.41425,8.23637 c -8.165329,-3.32448 -12.174769,-6.0567 -17.601629,-11.99454 -12.89933,-14.11392 -18.22674,-35.82299 -13.68802,-55.77825 l 1.60249,-7.04558 4.64751,0.67799 c 12.60518,1.83886 29.137869,9.60366 39.044159,18.33763 l 5.36652,4.73144 -4.5543,9.47464 c -5.14337,10.70015 -7.46766,20.04574 -8.50004,34.17727 L 108.5,215.99 102.89213,213.70677 Z M 127,155.10674 c 0,-1.66287 -12.69142,-11.54636 -18.44329,-14.36278 l -5.45387,-2.6705 1.73704,-3.74436 c 4.19198,-9.03617 6.59336,-12.66612 12.57163,-19.0034 3.50056,-3.71078 8.17247,-7.76291 10.38203,-9.00476 l 4.01738,-2.25789 4.00117,4.54556 c 4.64639,5.27858 11.32509,17.70444 13.50918,25.13414 l 1.51629,5.15799 -5.87707,3.62753 c -3.23238,1.99514 -8.32142,5.86154 -11.30898,8.59201 C 128.12253,156.17345 127,156.84622 127,155.10674 Z"
     id="path3338"
     inkscape:connector-curvature="0" />
</svg>
