<?xml version="1.0" encoding="UTF-8" standalone="no"?>
<!-- Created with Inkscape (http://www.inkscape.org/) -->

<svg
   xmlns:dc="http://purl.org/dc/elements/1.1/"
   xmlns:cc="http://creativecommons.org/ns#"
   xmlns:rdf="http://www.w3.org/1999/02/22-rdf-syntax-ns#"
   xmlns:svg="http://www.w3.org/2000/svg"
   xmlns="http://www.w3.org/2000/svg"
   xmlns:sodipodi="http://sodipodi.sourceforge.net/DTD/sodipodi-0.dtd"
   xmlns:inkscape="http://www.inkscape.org/namespaces/inkscape"
   id="svg2"
   version="1.1"
   inkscape:version="0.91 r13725"
   width="512"
   height="512"
   viewBox="0 0 512 512"
   sodipodi:docname="coal1.svg">
  <metadata
     id="metadata8">
    <rdf:RDF>
      <cc:Work
         rdf:about="">
        <dc:format>image/svg+xml</dc:format>
        <dc:type
           rdf:resource="http://purl.org/dc/dcmitype/StillImage" />
      </cc:Work>
    </rdf:RDF>
  </metadata>
  <defs
     id="defs6">
    <filter
       style="color-interpolation-filters:sRGB"
       id="filter3362"
       inkscape:label="filter1">
      <feFlood
         id="feFlood3364"
         flood-color="rgb(255,255,255)" />
    </filter>
  </defs>
  <sodipodi:namedview
     pagecolor="#ffffff"
     bordercolor="#666666"
     borderopacity="1"
     objecttolerance="10"
     gridtolerance="10"
     guidetolerance="10"
     inkscape:pageopacity="0"
     inkscape:pageshadow="2"
     inkscape:window-width="1287"
     inkscape:window-height="878"
     id="namedview4"
     showgrid="false"
     inkscape:zoom="0.921875"
     inkscape:cx="449.00753"
     inkscape:cy="272.57966"
     inkscape:window-x="139"
     inkscape:window-y="29"
     inkscape:window-maximized="0"
     inkscape:current-layer="svg2" />
  <path
     style="fill:#ffffff"
     d="m 121.3223,487.53407 c -27.994708,-5.02676 -49.799588,-24.44846 -58.372968,-51.99304 -3.03741,-9.75863 -3.28475,-28.95018 -0.5017,-38.92887 7.23865,-25.95438 27.42457,-45.60902 53.567608,-52.15773 6.97164,-1.74636 10.43253,-2.02874 20,-1.63179 13.43685,0.55747 23.56094,3.37398 34.06935,9.47804 7.96832,4.62859 21.32267,17.81129 25.86542,25.53296 9.32017,15.8422 12.46115,36.467 8.2398,54.10535 -6.30012,26.32419 -26.77729,47.39891 -52.60506,54.14014 -7.46969,1.94964 -23.27539,2.70954 -30.26245,1.45494 z m 250.76245,0.47215 c -8.36739,-1.44706 -13.73613,-2.86918 -19.17538,-5.07934 -21.47094,-8.72443 -38.18951,-28.2634 -43.93828,-51.35061 -1.92652,-7.73693 -1.6866,-25.92531 0.44849,-34 8.72167,-32.98449 37.2078,-55 71.16517,-55 20.5294,0 36.15741,6.57191 51.03176,21.45994 14.46168,14.47497 20.30108,27.71975 21.19369,48.07101 0.44484,10.14206 0.19503,13.34643 -1.59112,20.4097 -6.59534,26.08103 -25.77522,45.91639 -51.3057,53.0591 -7.043,1.97043 -22.62097,3.33082 -27.82863,2.4302 z M 225.56369,414.3247 c -0.0176,-12.78144 -0.38764,-16.54272 -2.28694,-23.24843 -9.72129,-34.32228 -37.89378,-60.43425 -72.23079,-66.94787 -10.56422,-2.004 -27.93316,-1.98739 -37.75337,0.0361 -17.213148,3.54684 -30.720878,10.68766 -42.918058,22.68852 -5.08295,5.00113 -7.37176,6.67065 -7.75774,5.65871 -0.30114,-0.7895 -10.79851,-36.53546 -23.3275,-79.43546 l -22.77997,-78 -7.7122897,-0.29206 -7.71229,-0.29207 0,-14.95793 0,-14.95794 256.0000077,0 256,0 0,15 0,15 -7.9026,0 -7.9026,0 -2.03155,6.75 c -1.11736,3.7125 -11.55505,39.375 -23.19488,79.25 -11.63983,39.875 -21.25628,72.59932 -21.36988,72.7207 -0.11361,0.12139 -2.88224,-2.27616 -6.15252,-5.32788 -11.27516,-10.5216 -24.76354,-18.16809 -39.6196,-22.46013 -9.47292,-2.73681 -30.11898,-3.73683 -40.1476,-1.94462 -29.15332,5.20999 -54.63086,24.15652 -67.92375,50.51193 -6.55677,12.99989 -10.48651,32.80173 -9.37693,47.25 l 0.63358,8.25 -31.25584,-0.002 -31.25583,-0.002 -0.0211,-15.24843 z M 32.084742,143.98953 c 0,-0.32271 6.18256,-10.892 13.73902,-23.48732 l 13.73902,-22.900566 34.40937,-0.26269 34.409378,-0.26268 16.04323,-27.75 c 8.82378,-15.262503 16.30124,-27.750003 16.61658,-27.750003 0.31534,0 11.11833,6.084634 24.00665,13.521409 16.98927,9.803094 23.63938,13.171774 24.18272,12.250004 0.41219,-0.69928 7.68463,-13.196412 16.16099,-27.771413 8.47636,-14.574999 15.92043,-26.38899 16.54237,-26.253311 0.62195,0.135678 18.57278,7.560678 39.89075,16.500001 l 38.75993,16.25331 32.89471,0.5 32.89471,0.5 4.38815,16.500003 c 2.41349,9.075 4.84071,18.1875 5.39384,20.25 l 1.00568,3.75 26.86564,0 26.86564,0 16.09582,27.956586 c 8.85269,15.37612 16.09581,28.20112 16.09581,28.5 0,0.29887 -101.475,0.54341 -225.5,0.54341 -124.025,0 -225.500008,-0.26403 -225.500008,-0.58674 z"
     id="path3407"
     inkscape:connector-curvature="0" />
</svg>
