<?xml version="1.0" encoding="UTF-8" standalone="no"?>
<!-- Created with Inkscape (http://www.inkscape.org/) -->

<svg
   xmlns:dc="http://purl.org/dc/elements/1.1/"
   xmlns:cc="http://creativecommons.org/ns#"
   xmlns:rdf="http://www.w3.org/1999/02/22-rdf-syntax-ns#"
   xmlns:svg="http://www.w3.org/2000/svg"
   xmlns="http://www.w3.org/2000/svg"
   xmlns:sodipodi="http://sodipodi.sourceforge.net/DTD/sodipodi-0.dtd"
   xmlns:inkscape="http://www.inkscape.org/namespaces/inkscape"
   id="svg3518"
   version="1.1"
   inkscape:version="0.91 r13725"
   width="1500"
   height="1500"
   viewBox="0 0 1500 1500"
   sodipodi:docname="gas1.svg">
  <metadata
     id="metadata3524">
    <rdf:RDF>
      <cc:Work
         rdf:about="">
        <dc:format>image/svg+xml</dc:format>
        <dc:type
           rdf:resource="http://purl.org/dc/dcmitype/StillImage" />
        <dc:title></dc:title>
      </cc:Work>
    </rdf:RDF>
  </metadata>
  <defs
     id="defs3522" />
  <sodipodi:namedview
     pagecolor="#ffffff"
     bordercolor="#666666"
     borderopacity="1"
     objecttolerance="10"
     gridtolerance="10"
     guidetolerance="10"
     inkscape:pageopacity="0"
     inkscape:pageshadow="2"
     inkscape:window-width="971"
     inkscape:window-height="714"
     id="namedview3520"
     showgrid="false"
     inkscape:zoom="0.31466667"
     inkscape:cx="593.18778"
     inkscape:cy="748.84529"
     inkscape:window-x="0"
     inkscape:window-y="0"
     inkscape:window-maximized="0"
     inkscape:current-layer="svg3518" />
  <path
     style="fill:#ffffff"
     d="m 900.89177,1471.5328 c 0.2567,-0.2457 4.0528,-3.0913 8.4356,-6.3233 38.6826,-28.5265 77.6756,-72.4624 107.23653,-120.8301 45.2486,-74.036 71.5839,-157.6118 77.5185,-246.0068 2.2247,-33.1369 0.2682,-79.354 -4.8477,-114.51402 -19.6173,-134.82414 -89.54033,-266.44415 -206.26343,-388.26157 -25.2444,-26.34611 -70.3162,-68.80474 -70.9851,-66.86948 -0.1704,0.49308 0.366,6.27897 1.1919,12.85753 2.8391,22.61208 4.326,43.88664 4.8984,70.08602 2.6068,119.3101 -26.95,245.7269 -85.0462,363.75 -9.127,18.54182 -20.9536,40.11232 -29.5553,53.90622 -5.475,8.7798 -5.5576,8.8597 -5.8184,5.625 -3.0041,-37.2622 -14.4705,-79.17213 -31.2881,-114.35806 -17.7146,-37.06263 -36.0873,-63.27251 -64.66504,-92.2491 -9.09299,-9.21989 -16.93228,-16.51649 -17.42064,-16.21467 -0.48837,0.30183 -1.42503,2.99381 -2.08148,5.9822 -2.08326,9.48379 -11.00462,39.53164 -16.78319,56.52716 -11.59447,34.10078 -23.2543,61.55516 -46.78318,110.15625 -40.72219,84.11542 -49.57607,106.05262 -59.21603,146.71872 -7.19041,30.3327 -9.93533,55.3273 -9.93533,90.4688 0,30.118 0.61499,35.4073 6.70299,57.6491 11.1391,40.6954 38.17814,88.3401 73.42605,129.3821 10.80441,12.5804 35.39749,37.1887 46.16724,46.1958 5.00983,4.1899 8.95382,7.7729 8.76441,7.9623 -0.49992,0.4998 -27.7411,-9.8303 -44.12319,-16.7321 -18.38543,-7.7458 -54.69373,-25.8887 -71.25,-35.6028 -75.31298,-44.1887 -132.54427,-99.8445 -170.74997,-166.0492 -29.89941,-51.8112 -47.58239,-109.4726 -53.33563,-173.919 -1.65279,-18.5142 -1.89317,-64.2691 -0.4325,-82.32372 6.7901,-83.9289 28.90104,-159.29922 73.98522,-252.19588 22.20485,-45.75346 45.90682,-88.20821 101.97418,-182.65527 79.16511,-133.35587 112.5965,-195.44013 147.10119,-273.17643 34.83717,-78.48535 62.6854,-161.72353 80.0659,-239.316169 2.1367,-9.539062 4.0617,-17.904335 4.2778,-18.589494 0.6743,-2.138049 81.7526,74.782285 145.5777,138.111953 114.7114,113.82116 195.5736,204.56371 262.92213,295.04803 124.3723,167.09718 186.496,317.06905 201.6646,486.83576 4.0868,45.73847 4.3598,104.29502 0.6316,135.45922 -9.1198,76.2337 -33.191,142.9998 -74.0247,205.322 -15.0244,22.9308 -31.8841,43.7794 -52.6143,65.0621 -34.6997,35.6248 -70.7717,62.2437 -113.9182,84.0642 -35.37653,17.8912 -70.37143,29.8874 -106.40623,36.4761 -5.9297,1.0842 -11.8351,2.1999 -13.1231,2.4794 -1.288,0.2795 -2.1318,0.307 -1.875,0.061 z"
     id="path3528"
     inkscape:connector-curvature="0" />
</svg>
