<?xml version="1.0" encoding="UTF-8" standalone="no"?>
<!-- Created with Inkscape (http://www.inkscape.org/) -->

<svg
   xmlns:dc="http://purl.org/dc/elements/1.1/"
   xmlns:cc="http://creativecommons.org/ns#"
   xmlns:rdf="http://www.w3.org/1999/02/22-rdf-syntax-ns#"
   xmlns:svg="http://www.w3.org/2000/svg"
   xmlns="http://www.w3.org/2000/svg"
   xmlns:sodipodi="http://sodipodi.sourceforge.net/DTD/sodipodi-0.dtd"
   xmlns:inkscape="http://www.inkscape.org/namespaces/inkscape"
   id="svg3600"
   version="1.1"
   inkscape:version="0.91 r13725"
   width="640"
   height="640"
   viewBox="0 0 640 640"
   sodipodi:docname="hydro1.svg">
  <metadata
     id="metadata3606">
    <rdf:RDF>
      <cc:Work
         rdf:about="">
        <dc:format>image/svg+xml</dc:format>
        <dc:type
           rdf:resource="http://purl.org/dc/dcmitype/StillImage" />
        <dc:title />
      </cc:Work>
    </rdf:RDF>
  </metadata>
  <defs
     id="defs3604" />
  <sodipodi:namedview
     pagecolor="#ffffff"
     bordercolor="#666666"
     borderopacity="1"
     objecttolerance="10"
     gridtolerance="10"
     guidetolerance="10"
     inkscape:pageopacity="0"
     inkscape:pageshadow="2"
     inkscape:window-width="778"
     inkscape:window-height="549"
     id="namedview3602"
     showgrid="false"
     inkscape:zoom="0.36875"
     inkscape:cx="225.08474"
     inkscape:cy="320"
     inkscape:window-x="0"
     inkscape:window-y="0"
     inkscape:window-maximized="0"
     inkscape:current-layer="svg3600" />
  <path
     style="fill:#ffffff"
     d="m 31.18644,574.40305 c 0,-2.69191 31.383702,-289.77259 54.582189,-499.287535 l 4.031846,-36.413296 38.913315,-0.473549 38.91333,-0.473565 0,13.351437 0,13.351423 175.16839,0 175.16839,0 -0.88634,7.549098 c -0.48748,4.151997 -13.57607,117.854737 -29.08574,252.672747 -15.50966,134.818 -28.54676,246.9221 -28.97132,249.12022 l -0.77191,3.99658 -213.53108,0 c -209.208523,0 -213.53107,-0.0686 -213.53107,-3.39356 z m 138.69581,-31.51366 c -1.60958,-18.00173 -1.19533,-99.8121 0.63722,-125.84415 5.50568,-78.20977 18.09125,-150.89882 39.59655,-228.69325 l 10.18875,-36.85737 -23.08198,0 -23.08198,0 -7.54879,11.98974 C 126.3769,227.35813 92.949822,343.14764 78.008417,470.33299 75.186266,494.35587 71.22881,539.94796 71.22881,548.43784 l 0,6.26741 49.85498,0 49.85497,0 -1.05651,-11.81586 z m 112.46137,-33.03466 c -1.43877,-67.99268 2.49358,-126.38741 12.94838,-192.27995 7.44772,-46.94018 20.11143,-103.32897 32.53084,-144.85275 3.24828,-10.86052 5.90597,-20.07963 5.90597,-20.48691 0,-0.40728 -10.2996,-0.7405 -22.88799,-0.7405 l -22.888,0 -5.11987,7.5491 c -19.92415,29.37759 -43.14083,85.3321 -58.75063,141.59491 -20.37396,73.43438 -32.03398,145.57319 -39.2712,242.96501 l -0.82498,11.10161 49.65329,0 49.65327,0 -0.94908,-44.85052 z m 112.95388,-22.203 c 0.0172,-52.32974 0.59428,-73.02158 2.62782,-94.23042 6.93079,-72.28418 19.40907,-138.80847 39.46537,-210.3981 l 8.83294,-31.52859 -22.72513,0 -22.72514,0 -4.8625,6.633 c -7.33586,10.00693 -19.50216,33.06205 -29.39618,55.70577 -27.39913,62.70629 -49.84457,153.02928 -61.53363,247.6183 -3.09093,25.01221 -8.32851,82.19052 -8.32851,90.92202 0,1.8778 9.59651,2.3316 49.31144,2.33178 l 49.31145,2.5e-4 0.0221,-67.05401 z M 246.22881,156.8234 l 0,-47.95898 -40.04237,0 -40.04237,0 0,14.21007 0,14.21007 28.17796,0 28.17797,0 0,33.7489 0,33.74891 11.8644,0 11.86441,0 0,-47.95897 z m 112.71187,0 0,-47.95898 -40.04237,0 -40.04238,0 0,14.21007 0,14.21007 28.17797,0 28.17796,0 0,33.7489 0,33.74891 11.86441,0 11.86441,0 0,-47.95897 z m 112.71186,0 0,-47.95898 -40.04238,0 -40.04236,0 0,14.21007 0,14.21007 28.17797,0 28.17796,0 0,33.7489 0,33.74891 11.86441,0 11.8644,0 0,-47.95897 z m 4.44915,419.35669 c 0,-0.88911 12.37792,-109.79594 27.50649,-242.0152 15.12857,-132.21926 28.93713,-252.987901 30.68565,-268.374731 l 3.17918,-27.976068 31.60248,0 31.60248,0 0,269.991269 0,269.99125 -62.28814,0 c -36.43355,0 -62.28814,-0.67099 -62.28814,-1.61652 z"
     id="path3610"
     inkscape:connector-curvature="0" />
</svg>
