<?xml version="1.0" encoding="UTF-8" standalone="no"?>
<!-- Created with Inkscape (http://www.inkscape.org/) -->

<svg
   xmlns:dc="http://purl.org/dc/elements/1.1/"
   xmlns:cc="http://creativecommons.org/ns#"
   xmlns:rdf="http://www.w3.org/1999/02/22-rdf-syntax-ns#"
   xmlns:svg="http://www.w3.org/2000/svg"
   xmlns="http://www.w3.org/2000/svg"
   xmlns:sodipodi="http://sodipodi.sourceforge.net/DTD/sodipodi-0.dtd"
   xmlns:inkscape="http://www.inkscape.org/namespaces/inkscape"
   id="svg3682"
   version="1.1"
   inkscape:version="0.91 r13725"
   width="900"
   height="900"
   viewBox="0 0 900 900"
   sodipodi:docname="nuclear1.jpg.svg">
  <metadata
     id="metadata3688">
    <rdf:RDF>
      <cc:Work
         rdf:about="">
        <dc:format>image/svg+xml</dc:format>
        <dc:type
           rdf:resource="http://purl.org/dc/dcmitype/StillImage" />
        <dc:title></dc:title>
      </cc:Work>
    </rdf:RDF>
  </metadata>
  <defs
     id="defs3686" />
  <sodipodi:namedview
     pagecolor="#ffffff"
     bordercolor="#666666"
     borderopacity="1"
     objecttolerance="10"
     gridtolerance="10"
     guidetolerance="10"
     inkscape:pageopacity="0"
     inkscape:pageshadow="2"
     inkscape:window-width="640"
     inkscape:window-height="480"
     id="namedview3684"
     showgrid="false"
     inkscape:zoom="0.26222222"
     inkscape:cx="383.26271"
     inkscape:cy="450"
     inkscape:window-x="0"
     inkscape:window-y="0"
     inkscape:window-maximized="0"
     inkscape:current-layer="svg3682" />
  <path
     style="fill:#ffffff"
     d="M 428.12712,901.10714 C 336.83234,896.11248 245.85737,861.09097 173.26835,802.99729 87.172368,734.09388 28.526858,635.08072 10.182688,527.65441 c -4.75104,-27.82285 -5.94754,-43.08017 -5.94754,-75.84085 0,-32.69848 1.17701,-47.75756 5.92446,-75.79982 12.42232,-73.37617 44.92356,-145.4197 92.289342,-204.57221 C 164.77121,93.610691 250.69447,38.596971 347.11944,14.787407 383.95303,5.6923403 412.12422,2.4215913 453.62712,2.4215913 c 32.76068,0 48.018,1.1965 75.84085,5.9475417 111.94151,19.115183 215.33561,82.486731 283.79951,173.944427 42.928,57.3454 72.1899,124.96105 83.8272,193.70018 4.7474,28.04226 5.9244,43.10134 5.9244,75.79982 0,32.76068 -1.1965,48.018 -5.9475,75.84085 -15.8639,92.90148 -62.4438,180.81158 -130.8078,246.87342 -34.2916,33.13675 -70.2675,58.58548 -113.1727,80.05637 -69.4254,34.74224 -147.01323,50.78755 -224.96396,46.52294 z m 49,-56.29881 c 82.48576,-5.14581 157.47696,-33.98231 222.49996,-85.55837 16.1504,-12.81037 48.0262,-44.48099 60.3248,-59.9364 18.821,-23.65194 34.5664,-48.35337 47.1697,-74 63.1597,-128.52385 51.2168,-282.60254 -30.9546,-399.35433 -13.8576,-19.68931 -24.8086,-32.53931 -44.4775,-52.1902 -19.8043,-19.78631 -32.887,-30.94012 -52.208,-44.51066 -134.90731,-94.755164 -316.70523,-94.818627 -451.48998,-0.1576 -25.61295,17.98829 -54.62968,44.39598 -74.4323,67.73972 -34.04799,40.13646 -60.487132,88.08507 -75.803442,137.47307 -37.07469,119.54865 -15.78231,248.5598 57.662502,349.37883 12.89551,17.70191 25.28428,31.90951 43.00082,49.31391 79.62892,78.22597 187.81859,118.71977 298.70804,111.80203 z m -55,-57.12611 c -30.37911,-2.9064 -67.69148,-12.44507 -100,-25.56436 -14.64545,-5.94698 -36.5,-16.39931 -36.5,-17.45678 0,-0.99333 4.70143,-9.28131 48.98136,-86.34752 41.97871,-73.0611 62.0879,-107.897 62.55621,-108.36845 0.2013,-0.20265 4.47116,1.2936 9.48858,3.325 18.71588,7.5775 40.92102,12.34127 51.47385,11.04294 16.36577,-2.01351 26.62338,-4.69779 42.79822,-11.19971 4.83901,-1.94518 8.96291,-3.37088 9.16421,-3.16823 0.5686,0.57242 46.28915,79.94399 103.41453,179.52918 4.4677,7.7884 8.123,14.58667 8.123,15.10726 0,1.22188 -19.8284,11.93568 -31.6786,17.11672 -31.2705,13.67183 -67.55213,22.82513 -103.32136,26.06638 -13.39306,1.21362 -51.46164,1.16497 -64.5,-0.0824 z m 22,-261.42521 c -1.1,-0.25472 -4.475,-0.9587 -7.5,-1.5644 -21.2264,-4.25015 -42.5169,-22.01783 -51.86898,-43.28652 -7.0838,-16.1101 -7.85232,-36.4598 -2.03751,-53.95091 6.25309,-18.80945 23.48253,-37.05113 42.40649,-44.89789 9.69251,-4.01897 16.26079,-5.2226 28.5,-5.2226 6.37819,0 13.94956,0.60899 17,1.36736 27.40099,6.81218 49.24742,28.65491 56.12105,56.11151 2.00471,8.00781 1.74891,27.97137 -0.45488,35.5 -7.93257,27.09935 -27.66094,47.00411 -53.5544,54.03322 -5.57595,1.51366 -24.78588,2.79619 -28.61177,1.91023 z M 116.63783,441.06356 c 0.006,-5.9125 0.67188,-16.9803 1.47998,-24.59511 10.67592,-100.60021 65.83669,-190.62747 152.09394,-248.2308 6.93799,-4.63325 13.17965,-8.42409 13.87035,-8.42409 0.69071,0 9.34802,14.0625 19.23848,31.25 73.20353,127.2121 92.26008,160.45242 92.8064,161.88214 0.46319,1.21218 -1.12906,2.79934 -6.1881,6.16829 -13.87463,9.23949 -26.22438,22.77751 -34.85238,38.20581 -7.10643,12.70749 -11.99587,29.73376 -13.99777,48.74376 l -0.60552,5.75 -111.92805,0 -111.92804,0 0.0107,-10.75 z m 449.61165,6.5 c -3.5976,-30.56905 -9.9209,-47.29913 -25.16241,-66.57419 -6.54288,-8.2744 -16.48411,-17.28684 -25.28638,-22.92393 -3.9621,-2.53739 -5.16288,-3.83736 -4.68789,-5.07515 0.35119,-0.91521 16.29886,-28.89188 35.43925,-62.17037 19.14043,-33.2785 43.91793,-76.36886 55.06113,-95.75636 11.1432,-19.3875 20.8333,-35.25 21.5335,-35.25 2.0225,0 26.966,17.03951 38.4804,26.2869 72.8063,58.4716 117.7253,139.73757 127.5245,230.7131 0.7998,7.425 1.459,18.3375 1.4648,24.25 l 0.011,10.75 -111.9387,0 -111.9387,0 -0.5002,-4.25 z"
     id="path3692"
     inkscape:connector-curvature="0" />
</svg>
