<?xml version="1.0" encoding="UTF-8" standalone="no"?>
<!-- Created with Inkscape (http://www.inkscape.org/) -->

<svg
   xmlns:dc="http://purl.org/dc/elements/1.1/"
   xmlns:cc="http://creativecommons.org/ns#"
   xmlns:rdf="http://www.w3.org/1999/02/22-rdf-syntax-ns#"
   xmlns:svg="http://www.w3.org/2000/svg"
   xmlns="http://www.w3.org/2000/svg"
   xmlns:sodipodi="http://sodipodi.sourceforge.net/DTD/sodipodi-0.dtd"
   xmlns:inkscape="http://www.inkscape.org/namespaces/inkscape"
   id="svg3764"
   version="1.1"
   inkscape:version="0.91 r13725"
   width="512"
   height="512"
   viewBox="0 0 512 512"
   sodipodi:docname="solar1.svg">
  <metadata
     id="metadata3770">
    <rdf:RDF>
      <cc:Work
         rdf:about="">
        <dc:format>image/svg+xml</dc:format>
        <dc:type
           rdf:resource="http://purl.org/dc/dcmitype/StillImage" />
        <dc:title></dc:title>
      </cc:Work>
    </rdf:RDF>
  </metadata>
  <defs
     id="defs3768" />
  <sodipodi:namedview
     pagecolor="#ffffff"
     bordercolor="#666666"
     borderopacity="1"
     objecttolerance="10"
     gridtolerance="10"
     guidetolerance="10"
     inkscape:pageopacity="0"
     inkscape:pageshadow="2"
     inkscape:window-width="640"
     inkscape:window-height="480"
     id="namedview3766"
     showgrid="false"
     inkscape:zoom="0.4609375"
     inkscape:cx="218.0339"
     inkscape:cy="256"
     inkscape:window-x="0"
     inkscape:window-y="0"
     inkscape:window-maximized="0"
     inkscape:current-layer="svg3764" />
  <path
     style="fill:#ffffff"
     d="m 240,472 0,-40 16,0 16,0 0,40 0,40 -16,0 -16,0 0,-40 z m -112.70783,5.27975 -13.20784,-7.68013 1.85465,-3.04981 C 116.95904,464.87241 125.54582,450 135.02072,433.5 c 9.4749,-16.5 17.7988,-30.61139 18.49755,-31.35865 1.05803,-1.13148 3.50369,-0.0653 14.6261,6.37623 7.3456,4.25418 13.41745,7.79058 13.493,7.85865 0.44193,0.39819 -39.31604,68.03539 -40.13737,68.28263 -0.55,0.16557 -6.94353,-3.15503 -14.20783,-7.37911 z M 352.5,455.27048 c -9.35,-16.30832 -18.20304,-31.73949 -19.67343,-34.2915 l -2.67343,-4.64001 13.55196,-7.75524 c 11.12124,-6.36423 13.77057,-7.51565 14.77073,-6.41948 0.67032,0.73466 9.23351,15.28575 19.02931,32.33575 9.7958,17.05 18.40498,31.91897 19.13153,33.04216 1.24896,1.93082 0.59476,2.46238 -11.99954,9.75 -7.32629,4.23931 -13.72926,7.69029 -14.22883,7.66883 -0.49956,-0.0215 -8.5583,-13.38218 -17.9083,-29.69051 z M 234.86078,414.47869 C 165.84234,405.06146 110.5974,352.04722 98.370842,283.5 c -2.46825,-13.83807 -2.45706,-41.27163 0.0225,-55 11.132368,-61.63694 56.218088,-110.72067 116.621898,-126.96344 84.80258,-22.803671 172.49225,28.10957 195.44825,113.47863 14.68424,54.60795 -1.2433,113.70351 -41.49402,153.95423 -35.07736,35.07736 -85.40246,52.155 -134.10864,45.50927 z M 283,381.10577 C 333.16787,369.66881 370.6986,331.56462 381.59919,281 c 2.5622,-11.88528 2.5622,-38.11472 0,-50 -7.28173,-33.77779 -26.75356,-62.64907 -55.09919,-81.6967 -12.60438,-8.46986 -29.32131,-15.41473 -45.5,-18.90249 -11.88528,-2.5622 -38.11472,-2.5622 -50,0 -39.09838,8.42873 -71.0734,32.68165 -88.80449,67.35786 -35.36995,69.17199 -1.71438,153.07586 71.80449,179.00973 7.85925,2.77236 19.56069,5.53401 28,6.60827 7.88709,1.00396 32.65162,-0.36769 41,-2.2709 z m -74,-31.12128 c 0,-0.27977 6.975,-21.4228 15.5,-46.98449 8.525,-25.56169 15.5,-46.5826 15.5,-46.71313 0,-0.13053 -7.15448,-0.36097 -15.89885,-0.5121 L 208.20229,255.5 223.99856,216 l 15.79626,-39.5 32.09346,-0.26384 32.09345,-0.26384 -1.88602,4.76384 C 301.0584,183.35627 295.60444,196.975 289.9758,211 c -5.62864,14.025 -10.45083,26.27802 -10.71597,27.22894 -0.44361,1.59097 1.12324,1.75057 19.63377,2 L 319.00946,240.5 264.00473,295.49659 C 233.75213,325.74472 209,350.26427 209,349.98449 Z M 34.707842,384.63713 c -4.23931,-7.32629 -7.69029,-13.72926 -7.66883,-14.22883 0.0215,-0.49956 13.38218,-8.5583 29.6905,-17.9083 16.30832,-9.35 31.71962,-18.19169 34.24732,-19.64819 l 4.59582,-2.6482 7.813708,13.51245 c 6.4551,11.16296 7.57898,13.72683 6.46368,14.74549 -0.74252,0.67818 -15.300038,9.24779 -32.350038,19.04359 -17.05,9.7958 -31.91897,18.40498 -33.04216,19.13153 -1.93082,1.24896 -2.46238,0.59476 -9.75,-11.99954 z m 401.407078,-6.20468 c -18.36092,-10.61556 -33.81572,-19.73325 -34.344,-20.26153 -0.61403,-0.61403 1.86415,-5.8453 6.86981,-14.50172 l 7.83033,-13.54119 3.01447,1.81991 c 1.65796,1.00095 16.51447,9.58022 33.01447,19.06504 16.5,9.48482 30.6263,17.82943 31.39177,18.54357 1.17569,1.09685 0.33363,3.13394 -5.42379,13.12096 -3.74856,6.50238 -7.30021,12.55004 -7.89257,13.43924 -0.93521,1.40385 -5.47253,-0.92459 -34.46049,-17.68428 z M 2.2033898e-6,256 l 0,-16 L 40.000002,240 l 40,0 0,16 0,16 -40,0 -39.9999997966102,0 0,-16 z M 432,256 l 0,-16 40,0 40,0 0,16 0,16 -40,0 -40,0 0,-16 z M 61.286612,162.14873 c -18.81736,-10.8068 -34.22986,-20.05637 -34.25,-20.55461 -0.0201,-0.49823 3.41927,-6.90948 7.64313,-14.24723 7.29654,-12.67565 7.78305,-13.27488 9.75,-12.00906 1.13864,0.73277 16.02026,9.34955 33.07026,19.1484 17.05,9.79885 31.611388,18.37553 32.358648,19.0593 1.1272,1.03142 0.041,3.51845 -6.37623,14.59884 -4.254178,7.3456 -7.790578,13.42256 -7.858648,13.50436 -0.0681,0.0818 -15.5198,-8.69321 -34.33716,-19.5 z m 347.319688,6.1856 c -6.38413,-11.156 -7.53846,-13.81006 -6.44205,-14.8117 0.73466,-0.67117 15.28575,-9.23755 32.33575,-19.0364 17.05,-9.79885 31.91897,-18.40734 33.04216,-19.12998 1.92986,-1.24166 2.47349,-0.56847 9.88657,12.24264 6.61603,11.43369 7.62728,13.76032 6.45784,14.85788 -0.76261,0.71574 -14.88657,9.05876 -31.38657,18.54004 -16.5,9.48128 -31.37608,18.069 -33.05795,19.08381 l -3.05794,1.84511 -7.77781,-13.5914 z M 152.61869,108.75 C 151.83362,107.5125 143.67322,93.45 134.48448,77.5 125.29574,61.55 116.93783,47.113271 115.91135,45.41838 l -1.86634,-3.081621 13.55655,-7.803612 c 11.4233,-6.575643 13.76065,-7.585634 14.85359,-6.41838 C 143.16852,28.876645 151.50438,43 160.97928,59.5 c 9.4749,16.5 18.05185,31.35651 19.0599,33.014468 l 1.83281,3.014468 -13.37725,7.735534 C 161.13725,107.51901 154.87643,111 154.5818,111 c -0.29463,0 -1.17803,-1.0125 -1.96311,-2.25 z m 190.66872,-5.50158 -13.21259,-7.633406 1.8465,-3.057507 C 332.9369,90.875878 341.52814,76 351.01296,59.5 360.49778,43 368.84005,28.876043 369.55133,28.11343 c 1.08959,-1.16822 3.42146,-0.155087 14.80788,6.433597 11.00196,6.366221 13.3465,8.111397 12.61029,9.38657 -26.63969,46.142139 -38.67018,66.466683 -39.4695,66.680603 -0.55,0.14719 -6.94567,-3.16741 -14.21259,-7.36578 z M 240,40 l 0,-40 16,0 16,0 0,40 0,40 -16,0 -16,0 0,-40 z"
     id="path3774"
     inkscape:connector-curvature="0" />
</svg>
