<?xml version="1.0" encoding="UTF-8" standalone="no"?>
<!-- Created with Inkscape (http://www.inkscape.org/) -->

<svg
   xmlns:dc="http://purl.org/dc/elements/1.1/"
   xmlns:cc="http://creativecommons.org/ns#"
   xmlns:rdf="http://www.w3.org/1999/02/22-rdf-syntax-ns#"
   xmlns:svg="http://www.w3.org/2000/svg"
   xmlns="http://www.w3.org/2000/svg"
   xmlns:sodipodi="http://sodipodi.sourceforge.net/DTD/sodipodi-0.dtd"
   xmlns:inkscape="http://www.inkscape.org/namespaces/inkscape"
   id="svg3846"
   version="1.1"
   inkscape:version="0.91 r13725"
   width="512"
   height="512"
   viewBox="0 0 512 512"
   sodipodi:docname="wind2.svg">
  <metadata
     id="metadata3852">
    <rdf:RDF>
      <cc:Work
         rdf:about="">
        <dc:format>image/svg+xml</dc:format>
        <dc:type
           rdf:resource="http://purl.org/dc/dcmitype/StillImage" />
        <dc:title />
      </cc:Work>
    </rdf:RDF>
  </metadata>
  <defs
     id="defs3850">
    <clipPath
       clipPathUnits="userSpaceOnUse"
       id="clipPath3422">
      <rect
         style="opacity:0.747;fill:#000000;fill-opacity:1;fill-rule:evenodd;stroke:#ffffff;stroke-width:1.77165353;stroke-linejoin:bevel;stroke-miterlimit:4;stroke-dasharray:none;stroke-dashoffset:0;stroke-opacity:1"
         id="rect3424"
         width="334.10168"
         height="316.74579"
         x="91.118645"
         y="22.779661" />
    </clipPath>
    <clipPath
       clipPathUnits="userSpaceOnUse"
       id="clipPath3427">
      <rect
         y="119.23685"
         x="663.42017"
         height="161.7975"
         width="443.88986"
         id="rect3429"
         style="opacity:0.747;fill:#000000;fill-opacity:1;fill-rule:evenodd;stroke:#ffffff;stroke-width:1.56944442;stroke-linejoin:bevel;stroke-miterlimit:4;stroke-dasharray:none;stroke-dashoffset:0;stroke-opacity:1" />
    </clipPath>
    <clipPath
       clipPathUnits="userSpaceOnUse"
       id="clipPath3440">
      <rect
         y="144.24655"
         x="451.17838"
         height="177.94754"
         width="291.43558"
         id="rect3442"
         style="opacity:0.747;fill:#000000;fill-opacity:1;fill-rule:evenodd;stroke:#ffffff;stroke-width:1.72644579;stroke-linejoin:bevel;stroke-miterlimit:4;stroke-dasharray:none;stroke-dashoffset:0;stroke-opacity:1" />
    </clipPath>
  </defs>
  <sodipodi:namedview
     pagecolor="#ffffff"
     bordercolor="#666666"
     borderopacity="1"
     objecttolerance="10"
     gridtolerance="10"
     guidetolerance="10"
     inkscape:pageopacity="0"
     inkscape:pageshadow="2"
     inkscape:window-width="1120"
     inkscape:window-height="701"
     id="namedview3848"
     showgrid="false"
     inkscape:zoom="0.921875"
     inkscape:cx="324.00475"
     inkscape:cy="252.74189"
     inkscape:window-x="0"
     inkscape:window-y="0"
     inkscape:window-maximized="0"
     inkscape:current-layer="svg3846" />
  <g
     id="g3340"
     transform="matrix(1.3193386,0,0,1.2413523,-85.710571,-32.579275)"
     style="fill:#ffffff">
    <path
       clip-path="url(#clipPath3422)"
       inkscape:connector-curvature="0"
       id="path3856"
       d="m 206.42716,377.12955 c -3.79541,-2.9019 -3.69268,-8.66929 0.21157,-11.87795 l 2.13332,-1.75325 2.92306,-47.38919 c 1.60768,-26.06406 2.92306,-48.1022 2.92306,-48.97364 0,-1.41003 -0.45669,-1.18687 -4.14859,2.02717 -54.00459,47.01448 -90.03322,66.36549 -101.96647,54.76626 -7.66294,-7.44843 -1.19831,-25.25466 17.71492,-48.79416 20.66157,-25.7155 53.42137,-57.45074 78.0188,-75.57876 5.51748,-4.06632 6.09913,-6.14681 3.47407,-12.42629 -2.6135,-6.25182 -7.12036,-21.63178 -11.09955,-37.87797 -14.42996,-58.914427 -16.9015,-103.080711 -6.54594,-116.975994 8.14543,-10.929699 20.97059,-4.18368 33.06407,17.391677 14.42657,25.73766 34.21844,92.429597 36.66939,123.563487 0.44303,5.62764 0.65214,6.25481 2.7215,8.16207 1.73968,1.60341 3.37246,2.24868 7.29206,2.88182 36.49578,5.89523 100.77513,28.79737 125.62308,44.75835 11.29758,7.25696 19.0043,16.06715 19.02934,21.75402 0.0305,6.93694 -7.16749,11.78071 -20.19477,13.58965 -21.59229,2.99825 -73.93175,-6.81459 -123.91653,-23.23242 -4.86463,-1.59782 -8.10433,-2.34719 -8.08568,-1.87028 0.0171,0.43765 1.73942,28.59543 3.82734,62.57282 l 3.79621,61.7771 2.34991,2.04103 c 1.71518,1.48974 2.46024,2.84081 2.7584,5.00198 0.37197,2.6962 0.18092,3.18213 -2.13688,5.43506 l -2.54538,2.47412 -30.99907,0 c -30.22172,0 -31.04653,-0.0363 -32.89124,-1.44671 z m 47.88654,-14.85847 c 0.0255,-2.99947 -7.26563,-123.61378 -7.6524,-126.59155 l -0.38806,-2.98776 -2.87821,3.53928 c -1.58301,1.94661 -4.97997,5.7049 -7.5488,8.35177 l -4.67058,4.81248 -3.19294,52.14244 c -1.75611,28.67834 -3.38471,54.43042 -3.61912,57.22685 l -0.42618,5.08441 15.18145,0 15.18146,0 0.0134,-1.57792 z M 127.44507,310.48797 c 15.9793,-7.80935 38.22272,-23.1214 59.39559,-40.88707 14.03122,-11.77327 42.98372,-39.3882 42.8993,-40.9174 -0.0162,-0.29463 -1.71472,-1.30544 -3.77434,-2.24626 -3.64513,-1.66507 -10.23681,-7.43757 -13.18492,-11.54641 l -1.46101,-2.03621 -8.99279,7.27173 c -17.42267,14.08826 -46.90326,43.35809 -61.40849,60.96947 -9.0653,11.00655 -19.90935,26.74442 -21.14103,30.6818 -0.72275,2.31039 0.83875,2.04776 7.66769,-1.28965 z m 271.28364,-61.30121 c 0.18955,-1.05493 -9.45342,-7.10097 -20.36791,-12.77046 -24.44603,-12.69841 -63.63407,-26.70398 -96.63641,-34.53728 -12.32376,-2.92512 -11.98179,-2.9724 -12.48061,1.72544 -0.49024,4.61701 -2.96806,10.06106 -6.54248,14.37453 -2.30226,2.77829 -2.47886,3.25442 -1.47604,3.9798 0.62649,0.45318 8.00966,3.03776 16.40702,5.74352 25.41217,8.18819 44.39367,13.17328 65.64243,17.2396 10.57434,2.02359 15.91737,2.8172 32.59728,4.84174 4.61474,0.56012 22.73385,0.087 22.85672,-0.59689 z M 246.89997,212.93532 c 9.41901,-4.27179 10.04168,-19.15549 1.06119,-25.36515 -2.49624,-1.72605 -3.99761,-2.19432 -7.78741,-2.42888 -8.55239,-0.52933 -13.64271,2.66473 -15.80426,9.91682 -1.2234,4.1046 -0.55146,10.60963 1.39408,13.49579 4.06771,6.03433 13.28084,7.94415 21.1364,4.38142 z m -23.96252,-38.05547 c 4.59092,-3.02827 10.33027,-4.72332 16.03113,-4.73462 2.87695,-0.006 5.23083,-0.17692 5.23083,-0.3805 0,-4.3061 -6.88541,-35.00612 -11.67601,-52.05991 -8.13103,-28.945177 -21.65757,-62.380297 -29.48661,-72.885456 -3.63017,-4.871031 -3.93812,-3.689744 -3.87845,14.877589 0.0719,22.36814 2.90233,44.573827 9.39352,73.695277 3.65042,16.37682 10.82003,43.21017 11.54535,43.21017 0.12585,0 1.40396,-0.77514 2.84024,-1.72255 z"
       style="fill:#ffffff" />
    <path
       transform="matrix(0.90459364,0,0,0.76219512,-277.50782,199.52873)"
       clip-path="url(#clipPath3440)"
       inkscape:connector-curvature="0"
       id="path3431"
       d="m 456.51868,401.12748 c -3.26945,-3.10621 -9.7115,-13.12989 -14.31566,-22.27482 -7.58014,-15.05593 -10.72118,-18.42736 -22.11182,-23.73364 -2.32796,-1.08447 -3.32225,-3.79688 -2.9128,-7.94599 0.53306,-5.40172 1.75021,-6.27014 8.54069,-6.09379 9.84788,0.25568 15.20468,5.91818 26.85764,28.39003 14.33951,27.65263 22.89629,27.2132 39.28835,-2.01769 11.20443,-19.98012 19.6356,-27.9751 29.50139,-27.9751 10.37173,0 19.24958,7.88536 28.63273,25.4317 18.00882,33.67628 25.49311,33.59675 43.41219,-0.46132 9.23105,-17.54508 14.78206,-22.87469 25.34625,-24.33531 12.50829,-1.72944 19.05878,3.8474 32.06056,27.29515 16.32505,29.44098 24.52249,29.73114 39.80316,1.40893 11.57589,-21.45552 19.61956,-29.34219 29.91251,-29.32869 10.78373,0.0142 18.46611,7.4012 30.37621,29.20853 6.42641,11.76675 11.84193,18.88716 15.15522,19.92638 9.41695,2.95365 10.28711,3.87409 9.66098,10.21897 -0.45228,4.58306 -2.13356,6.54824 -6.17055,7.2126 -9.31903,1.53354 -16.61391,-5.09847 -27.80232,-25.27589 -17.64169,-31.81545 -23.89309,-32.00353 -41.29474,-1.24244 -12.57226,22.22416 -17.44573,26.76796 -28.85521,26.90325 -11.864,0.14086 -18.15727,-5.60537 -30.48149,-27.83119 -6.28566,-11.33572 -12.84222,-20.24316 -15.64575,-21.25564 -7.8713,-2.84272 -15.40456,3.83521 -24.33387,21.57089 -11.51724,22.87595 -18.41551,28.63877 -32.29839,26.98217 -9.88107,-1.17907 -11.59017,-2.42294 -18.81616,-13.69428 -4.37134,-6.81858 -10.64969,-17.35798 -13.9519,-23.42094 -5.33664,-9.79823 -6.93562,-11.02354 -14.38566,-11.02354 -7.45003,0 -9.04903,1.22531 -14.38567,11.02354 -3.30219,6.06296 -9.59838,16.62954 -13.99153,23.48129 -7.45905,11.63353 -8.74386,12.5255 -19.41872,13.48113 -9.0353,0.80891 -12.6771,-0.16037 -17.37564,-4.62429 z m 4.00258,-92.2271 c -4.93849,-2.89901 -13.37386,-15.03856 -20.84223,-29.99457 -5.27532,-10.56423 -8.43302,-13.59327 -19.58783,-18.7897 -5.70687,-2.65855 -3.45946,-14.05161 2.98268,-15.12039 8.55209,-1.41882 18.23218,7.26727 26.9415,24.17501 10.11509,19.63683 14.9558,25.45683 21.23957,25.53635 6.77159,0.0858 11.92821,-5.73144 22.34052,-25.2023 10.35244,-19.35898 16.87684,-25.06985 28.4838,-24.93218 11.40947,0.13518 16.28295,4.67909 28.85523,26.90325 5.93806,10.4968 13.06543,20.23326 15.83861,21.63661 8.0044,4.05057 15.54558,-2.43749 25.49423,-21.93402 9.78405,-19.17395 18.05635,-26.70487 29.33378,-26.70487 10.60356,0 17.25615,6.35958 29.21708,27.93022 16.40925,29.59282 24.14082,29.84357 39.73608,1.28877 11.83892,-21.67699 19.61242,-29.1981 30.17789,-29.1981 10.56548,0 18.33899,7.52111 30.17791,29.1981 6.42641,11.76675 11.84193,18.88716 15.15522,19.92638 9.41695,2.95364 10.28711,3.87409 9.66098,10.21897 -0.47811,4.84475 -2.09083,6.50289 -6.98379,7.18051 -8.36878,1.15895 -18.3076,-7.81863 -25.64555,-23.16521 -7.45542,-15.59224 -16.67087,-26.61442 -22.25188,-26.61442 -5.84522,0 -12.78013,8.10708 -21.41686,25.03684 -9.0392,17.71866 -17.5367,25.26176 -28.44297,25.24837 -11.13115,-0.0142 -18.93372,-7.12437 -28.70776,-26.16219 -8.65886,-16.86571 -14.71741,-24.12302 -20.13837,-24.12302 -6.60678,0 -14.0066,7.85093 -21.50427,22.81521 -10.04452,20.04748 -15.58547,25.48573 -27.3496,26.84267 -12.30688,1.41954 -19.30235,-4.81814 -32.18804,-28.70136 -4.97493,-9.22087 -11.37669,-17.951 -14.22614,-19.40026 -8.1311,-4.13562 -14.67531,1.0279 -24.58776,19.40026 -11.6698,21.6296 -19.63057,29.39064 -29.91249,29.16201 -4.38119,-0.0974 -9.71348,-1.20304 -11.84954,-2.45694 z m -0.24824,-95.12384 c -3.67511,-2.13532 -8.51185,-9.52129 -24.41403,-37.28148 -2.58968,-4.52076 -7.42288,-8.7553 -11.29308,-9.89426 -5.51708,-1.62363 -6.76585,-3.25929 -6.76585,-8.86208 0,-5.72109 1.06474,-7.01842 6.36212,-7.75203 8.88494,-1.23043 17.44852,7.22177 27.45598,27.09893 9.34137,18.55413 17.05144,25.04077 24.98922,21.02392 2.77318,-1.40334 9.90055,-11.13982 15.8386,-21.63658 12.68793,-22.42862 17.46191,-26.80427 29.24426,-26.80427 11.78236,0 16.55634,4.37565 29.24426,26.80427 5.93806,10.49676 13.06543,20.23324 15.83861,21.63658 7.93777,4.01685 15.64785,-2.46979 24.98922,-21.02392 10.16026,-20.18066 17.91457,-27.61497 28.80358,-27.61497 11.66816,0 18.0133,5.85809 30.25229,27.93021 16.04872,28.94264 24.43297,29.7021 38.52285,3.48941 14.92805,-27.77197 17.30268,-30.02252 31.67779,-30.02252 12.45232,0 12.68854,0.14433 20.71867,12.6637 4.46751,6.96503 10.74428,17.4472 13.94837,23.2937 3.95051,7.20852 8.01323,11.26368 12.62217,12.59869 5.55393,1.60874 6.79655,3.2249 6.79655,8.83963 0,5.39706 -1.13129,7.05865 -5.27381,7.7459 -8.78941,1.45818 -18.18599,-7.26568 -28.09456,-26.08328 -16.90639,-32.10731 -25.67174,-31.55088 -43.28056,2.74751 -8.3935,16.34886 -17.37544,23.86305 -28.50565,23.84749 -10.04382,-0.0142 -18.21343,-7.73775 -27.67255,-26.16219 -8.96922,-17.47027 -14.72046,-24.12302 -20.85405,-24.12302 -7.37515,0 -10.10302,2.88663 -20.2021,21.37798 -11.74902,21.51239 -19.46281,28.89313 -30.21163,28.90723 -10.29295,0.0142 -18.33663,-7.87319 -29.9125,-29.32869 -9.91244,-18.37238 -16.45665,-23.5359 -24.58775,-19.40027 -2.84945,1.44927 -9.25121,10.1794 -14.22615,19.40027 -11.6698,21.62958 -19.63057,29.39062 -29.91249,29.16203 -4.38119,-0.0974 -9.82518,-1.25748 -12.09778,-2.57789 z m -2.07339,-97.71321 c -3.41295,-2.9944 -10.70522,-13.68357 -16.20503,-23.753705 -6.42643,-11.766748 -11.84195,-18.887161 -15.15523,-19.926381 -9.41694,-2.953649 -10.28712,-3.874086 -9.66097,-10.218965 0.47811,-4.844755 2.09083,-6.502905 6.98378,-7.180516 8.20747,-1.136621 17.69044,7.266895 24.75634,21.938292 7.4293,15.425944 17.63649,27.841345 22.88946,27.841345 6.22473,0 11.93983,-6.582181 20.94532,-24.123042 9.85025,-19.1863 17.55752,-26.151736 28.93694,-26.151736 11.37943,0 19.08669,6.965436 28.93695,26.151736 8.97318,17.477948 14.72049,24.123042 20.86389,24.123042 5.42491,0 14.70296,-11.182563 22.08167,-26.614428 7.62102,-15.938614 16.63851,-23.681242 27.5805,-23.681242 11.10654,0 18.7952,7.358817 30.65424,29.33913 4.97492,9.220882 11.29487,17.90959 14.04428,19.30826 7.50796,3.81938 15.99474,-2.59076 23.87115,-18.030132 12.0507,-23.62185 19.01273,-30.617258 30.4712,-30.617258 12.4973,0 19.29709,6.283972 30.38871,28.083488 7.36589,14.476957 10.6772,17.952732 22.23064,23.334872 5.70687,2.65852 3.45944,14.0516 -2.98268,15.12037 -8.5521,1.41881 -18.23218,-7.26728 -26.9415,-24.175 -10.44693,-20.281057 -14.9639,-25.47425 -22.15712,-25.47425 -7.19322,0 -11.71019,5.193193 -22.15711,25.47425 -8.79074,17.06579 -17.34515,24.69716 -27.68441,24.69716 -9.86578,0 -18.29696,-7.99498 -29.50138,-27.975102 -16.47509,-29.378924 -24.50107,-29.628492 -40.00338,-1.243893 -11.71827,21.456085 -19.61006,29.194135 -29.78887,29.208555 -10.90019,0.0158 -17.4638,-6.19438 -29.51055,-27.919767 -11.03191,-19.895193 -16.39298,-24.417044 -25.1844,-21.242062 -2.75889,0.996362 -9.37375,9.998974 -15.60805,21.242062 -5.95093,10.732047 -13.36513,21.406737 -16.47599,23.721517 -7.78498,5.79278 -19.19778,5.254 -26.6184,-1.2566 z"
       style="fill:#ffffff" />
  </g>
</svg>
