<?xml version="1.0" encoding="UTF-8" standalone="no"?>
<!-- Created with Inkscape (http://www.inkscape.org/) -->

<svg
   xmlns:dc="http://purl.org/dc/elements/1.1/"
   xmlns:cc="http://creativecommons.org/ns#"
   xmlns:rdf="http://www.w3.org/1999/02/22-rdf-syntax-ns#"
   xmlns:svg="http://www.w3.org/2000/svg"
   xmlns="http://www.w3.org/2000/svg"
   xmlns:sodipodi="http://sodipodi.sourceforge.net/DTD/sodipodi-0.dtd"
   xmlns:inkscape="http://www.inkscape.org/namespaces/inkscape"
   id="svg3846"
   version="1.1"
   inkscape:version="0.91 r13725"
   width="512"
   height="512"
   viewBox="0 0 512 512"
   sodipodi:docname="wind1.svg">
  <metadata
     id="metadata3852">
    <rdf:RDF>
      <cc:Work
         rdf:about="">
        <dc:format>image/svg+xml</dc:format>
        <dc:type
           rdf:resource="http://purl.org/dc/dcmitype/StillImage" />
        <dc:title></dc:title>
      </cc:Work>
    </rdf:RDF>
  </metadata>
  <defs
     id="defs3850" />
  <sodipodi:namedview
     pagecolor="#ffffff"
     bordercolor="#666666"
     borderopacity="1"
     objecttolerance="10"
     gridtolerance="10"
     guidetolerance="10"
     inkscape:pageopacity="0"
     inkscape:pageshadow="2"
     inkscape:window-width="640"
     inkscape:window-height="480"
     id="namedview3848"
     showgrid="false"
     inkscape:zoom="0.4609375"
     inkscape:cx="218.0339"
     inkscape:cy="256"
     inkscape:window-x="0"
     inkscape:window-y="0"
     inkscape:window-maximized="0"
     inkscape:current-layer="svg3846" />
  <path
     style="fill:#ffffff"
     d="m 192.29122,503.42861 c -5.26049,-4.1379 -5.11811,-12.36177 0.29324,-16.93709 l 2.95681,-2.5 4.0514,-67.57353 c 2.22827,-37.16545 4.0514,-68.59023 4.0514,-69.83284 0,-2.0106 -0.63297,-1.6924 -5.75,2.89059 -74.8511,67.03923 -124.787273,94.63235 -141.326923,78.0927 -10.62093,-10.62092 -1.66087,-36.01131 24.55312,-69.57692 28.637223,-36.66843 74.042753,-81.92057 108.135133,-107.7698 7.64729,-5.79827 8.45347,-8.7649 4.8151,-17.71899 -3.62234,-8.91463 -9.86891,-30.84534 -15.38412,-54.01121 -20.00013,-84.007688 -23.42571,-146.98559 -9.07277,-166.799251 11.28968,-15.5849533 29.06552,-5.9656223 45.82726,24.799257 19.99542,36.700032 47.42722,131.797884 50.82427,176.192534 0.61404,8.02461 0.90388,8.91891 3.77204,11.63852 2.41122,2.28634 4.67427,3.20645 10.10689,4.10926 50.58365,8.40617 139.6757,41.06295 174.11531,63.82215 15.65859,10.34789 26.34021,22.91058 26.37492,31.01965 0.0423,9.89157 -9.93424,16.79843 -27.99023,19.37784 -29.92721,4.27529 -102.47041,-9.7171 -171.75,-33.12774 -6.74245,-2.27837 -11.23271,-3.34692 -11.20686,-2.66688 0.0237,0.62406 2.41086,40.775 5.30474,89.22429 l 5.2616,88.08964 3.25701,2.91036 c 2.37726,2.12426 3.40993,4.05078 3.82318,7.13245 0.51556,3.84459 0.25076,4.53749 -2.96175,7.75 l -3.52792,3.52792 -42.96514,0 c -41.88772,0 -43.03091,-0.0517 -45.58771,-2.06291 z m 66.3714,-21.18709 c 0.0353,-4.27702 -10.07026,-176.26424 -10.60633,-180.51032 l -0.53786,-4.26033 -3.98924,5.04676 c -2.19407,2.77572 -6.9023,8.13477 -10.46273,11.90901 l -6.47349,6.86225 -4.42546,74.35131 c -2.434,40.89323 -4.69126,77.61382 -5.01615,81.60132 l -0.59069,7.25 21.0417,0 21.0417,0 0.0186,-2.25 z M 82.820967,408.40258 c 22.147523,-11.13556 52.977213,-32.96943 82.323103,-58.30198 19.44746,-16.78783 59.57602,-56.16471 59.45901,-58.34523 -0.0225,-0.42012 -2.37662,-1.86147 -5.23128,-3.20301 -5.05221,-2.37426 -14.18836,-10.60543 -18.27449,-16.46433 l -2.02497,-2.90349 -12.46413,10.36895 c -24.14806,20.08884 -65.00856,61.82548 -85.11301,86.93803 -12.564633,15.69453 -27.594633,38.13559 -29.301763,43.75 -1.00173,3.29446 1.16253,2.91996 10.62753,-1.83894 z M 458.8238,320.99152 c 0.26271,-1.50425 -13.10257,-10.12546 -28.2302,-18.20974 -33.88254,-18.10701 -88.19769,-38.07793 -133.93939,-49.24765 -17.0809,-4.171 -16.60692,-4.23842 -17.29829,2.46036 -0.67948,6.58352 -4.11378,14.34633 -9.06797,20.49703 -3.19097,3.96163 -3.43573,4.64056 -2.04582,5.6749 0.86833,0.6462 11.1015,4.33162 22.74036,8.18984 35.22161,11.67576 61.53023,18.78414 90.9813,24.58242 14.65619,2.88549 22.0617,4.01712 45.18028,6.90397 6.39609,0.79869 31.50943,0.12398 31.67973,-0.85113 z M 248.38709,269.29961 c 13.05487,-6.09126 13.91791,-27.31433 1.47082,-36.16885 -3.45982,-2.46122 -5.54074,-3.12894 -10.79346,-3.46341 -11.85373,-0.75479 -18.90898,3.79971 -21.90491,14.14067 -1.69566,5.85286 -0.76433,15.12856 1.93221,19.244 5.6379,8.60452 18.40742,11.32778 29.29534,6.24759 z m -33.21238,-54.26432 c 6.36307,-4.3181 14.31789,-6.73512 22.21936,-6.75122 3.9875,-0.008 7.25,-0.25228 7.25,-0.54257 0,-6.14019 -9.54326,-49.91617 -16.1831,-74.23364 -11.26972,-41.273718 -30.01769,-88.949757 -40.86885,-103.929349 -5.03146,-6.945735 -5.45829,-5.261305 -5.37558,21.214356 0.0996,31.895335 4.02266,63.559033 13.01955,105.084093 5.05953,23.35216 14.99671,61.61456 16.00201,61.61456 0.17443,0 1.94591,-1.1053 3.93661,-2.45623 z"
     id="path3856"
     inkscape:connector-curvature="0" />
</svg>
